<svg id="visual" viewBox="0 0 960 540" width="960" height="540" xmlns="http://www.w3.org/2000/svg" xmlns:xlink="http://www.w3.org/1999/xlink" version="1.1"><rect x="0" y="0" width="960" height="540" fill="#36383a"></rect><path d="M0 332L32 336.7C64 341.3 128 350.7 192 354.3C256 358 320 356 384 361.7C448 367.3 512 380.7 576 383.3C640 386 704 378 768 366.8C832 355.7 896 341.3 928 334.2L960 327L960 541L928 541C896 541 832 541 768 541C704 541 640 541 576 541C512 541 448 541 384 541C320 541 256 541 192 541C128 541 64 541 32 541L0 541Z" fill="#aa00ff"></path><path d="M0 426L32 417C64 408 128 390 192 382.8C256 375.7 320 379.3 384 383.5C448 387.7 512 392.3 576 390.8C640 389.3 704 381.7 768 387C832 392.3 896 410.7 928 419.8L960 429L960 541L928 541C896 541 832 541 768 541C704 541 640 541 576 541C512 541 448 541 384 541C320 541 256 541 192 541C128 541 64 541 32 541L0 541Z" fill="#cf75ff"></path><path d="M0 451L32 446C64 441 128 431 192 428.8C256 426.7 320 432.3 384 434C448 435.7 512 433.3 576 433.2C640 433 704 435 768 433.8C832 432.7 896 428.3 928 426.2L960 424L960 541L928 541C896 541 832 541 768 541C704 541 640 541 576 541C512 541 448 541 384 541C320 541 256 541 192 541C128 541 64 541 32 541L0 541Z" fill="#ebbbff"></path><path d="M0 483L32 480.7C64 478.3 128 473.7 192 472.5C256 471.3 320 473.7 384 479.5C448 485.3 512 494.7 576 499C640 503.3 704 502.7 768 499.8C832 497 896 492 928 489.5L960 487L960 541L928 541C896 541 832 541 768 541C704 541 640 541 576 541C512 541 448 541 384 541C320 541 256 541 192 541C128 541 64 541 32 541L0 541Z" fill="#ffffff"></path></svg>