<svg id="visual" viewBox="0 0 900 900" width="900" height="900" xmlns="http://www.w3.org/2000/svg" xmlns:xlink="http://www.w3.org/1999/xlink" version="1.1"><rect x="0" y="0" width="900" height="900" fill="#36383a"></rect><path d="M0 554L30 561.7C60 569.3 120 584.7 180 590.8C240 597 300 594 360 603.5C420 613 480 635 540 639.5C600 644 660 631 720 612.3C780 593.7 840 569.3 870 557.2L900 545L900 901L870 901C840 901 780 901 720 901C660 901 600 901 540 901C480 901 420 901 360 901C300 901 240 901 180 901C120 901 60 901 30 901L0 901Z" fill="#aa00ff"></path><path d="M0 711L30 695.8C60 680.7 120 650.3 180 638.3C240 626.3 300 632.7 360 639.8C420 647 480 655 540 652.5C600 650 660 637 720 645.8C780 654.7 840 685.3 870 700.7L900 716L900 901L870 901C840 901 780 901 720 901C660 901 600 901 540 901C480 901 420 901 360 901C300 901 240 901 180 901C120 901 60 901 30 901L0 901Z" fill="#cf75ff"></path><path d="M0 753L30 744.5C60 736 120 719 180 715.3C240 711.7 300 721.3 360 724.2C420 727 480 723 540 722.7C600 722.3 660 725.7 720 723.8C780 722 840 715 870 711.5L900 708L900 901L870 901C840 901 780 901 720 901C660 901 600 901 540 901C480 901 420 901 360 901C300 901 240 901 180 901C120 901 60 901 30 901L0 901Z" fill="#ebbbff"></path><path d="M0 805L30 801.3C60 797.7 120 790.3 180 788.5C240 786.7 300 790.3 360 799.8C420 809.3 480 824.7 540 832C600 839.3 660 838.7 720 834.2C780 829.7 840 821.3 870 817.2L900 813L900 901L870 901C840 901 780 901 720 901C660 901 600 901 540 901C480 901 420 901 360 901C300 901 240 901 180 901C120 901 60 901 30 901L0 901Z" fill="#ffffff"></path></svg>